<svg id="logo" xmlns="http://www.w3.org/2000/svg" xmlns:xlink="http://www.w3.org/1999/xlink" width="772.969" height="221.293" viewBox="0 0 772.969 221.293">
  <defs>
    <clipPath id="clip-path">
      <rect id="사각형_11610" data-name="사각형 11610" width="772.969" height="221.292" fill="none"/>
    </clipPath>
  </defs>
  <g id="그룹_36539" data-name="그룹 36539" clip-path="url(#clip-path)">
    <path id="패스_42535" data-name="패스 42535" d="M74.907,64.174C59.534,59.852,52.653,54.69,52.653,51.492c0-5.241,6.122-10.88,19.562-10.88,9.634,0,19.789,4.417,25.268,10.99l2.734,3.282L136.528,35.04l-3.045-4.7C120.8,10.775,98.929,0,71.893,0,34.977,0,8.184,21.926,8.184,52.135c0,30.245,30.6,44.018,60.632,53.532,21.491,6.341,24.248,12.181,24.248,16.559a7.556,7.556,0,0,1-2.346,5.752c-3.527,3.456-10.921,5.317-20.432,5.129-11.848,0-24.305-9-29.365-15.392l-2.85,2.6L0,137.288l2.912,4.486c13.95,21.488,39.644,34.837,67.053,34.837,40.607,0,67.889-20.692,67.889-51.492,0-37.921-32.41-51.318-62.947-60.945" fill="#0046fe"/>
    <path id="패스_42536" data-name="패스 42536" d="M684.3,4.934A88.768,88.768,0,0,0,595.63,93.6v98.544l46.846,29.146V169.646A74.8,74.8,0,0,0,684.3,182.27a88.668,88.668,0,1,0,0-177.336m0,130.492a41.987,41.987,0,0,1,0-83.973A42.359,42.359,0,0,1,726.771,93.6c0,23.062-19.053,41.824-42.472,41.824" fill="#0046fe"/>
    <path id="패스_42537" data-name="패스 42537" d="M220.523,13.462c-.033,0-.065,0-.1,0s-.088,0-.133,0c-1.955,0-3.883.109-5.8.274-.108.01-.215.026-.324.036-1.287.117-2.573.24-3.84.426h-.006c-.591.087-1.159.239-1.744.342-.148.026-.294.058-.442.086-1.32.241-2.649.458-3.943.772-.147.035-.295.066-.442.1-1.722.43-3.415.931-5.084,1.49-.183.061-.365.124-.548.187a68.132,68.132,0,0,0-10.091,4.408h0A69.511,69.511,0,0,0,151.5,82.84v92.281h43.789V82.84a25.95,25.95,0,0,1,4.3-14.362c.041.195,7.136-11.273,20.836-11.273,13.728,0,24.876,11.541,24.876,25.635v92.281H289.32V82.84c0-38.255-30.862-69.378-68.8-69.378" fill="#0046fe"/>
    <path id="패스_42538" data-name="패스 42538" d="M316.7,13.462a68.6,68.6,0,0,0-40.986,14.191c4.828,3.767,17.4,15.365,23.039,37.685A24.143,24.143,0,0,1,316.7,57.2c13.79,0,25.009,11.5,25.009,25.642v92.281H385.5V82.84c0-38.255-30.862-69.378-68.8-69.378" fill="#0046fe"/>
    <path id="패스_42539" data-name="패스 42539" d="M486.283,4.934a88.668,88.668,0,0,0,0,177.336,75.528,75.528,0,0,0,42.149-12.632V182.27h46.52V93.6A88.769,88.769,0,0,0,486.283,4.934m-.941,126.586a40.207,40.207,0,1,1,40.207-40.207,40.207,40.207,0,0,1-40.207,40.207" fill="#0046fe"/>
  </g>
</svg>
