<svg id="mark_departure" xmlns="http://www.w3.org/2000/svg" width="24" height="24" viewBox="0 0 24 24">
  <g id="타원_2" data-name="타원 2" fill="#0065ff" stroke="#0057dc" stroke-linejoin="round" stroke-width="1">
    <circle cx="12" cy="12" r="12" stroke="none"/>
    <circle cx="12" cy="12" r="11.5" fill="none"/>
  </g>
  <path id="패스_42550" data-name="패스 42550" d="M-6.874-3.978A3.932,3.932,0,0,0-3.906-5.24,3.928,3.928,0,0,0-.945-3.978l.211-.528C-2.175-4.6-3.4-5.09-3.521-5.874h2.452v-.541h-2.5v-.727h-.677v.727H-6.731v.541h2.436C-4.422-5.09-5.644-4.6-7.079-4.506Zm6.526.36h-7.11v.528h3.207v.733H-6.6v.516h4.662v.684H-6.582V.628h5.557V.093H-5.9V-.665h4.643V-2.356H-3.568v-.733h3.22ZM6.427-7.1h-.69v4.04h.69V-4.829H7.6V-5.4H6.427ZM3.6-6.769v1.125H1.33V-6.769H.653v3.4H4.289v-3.4ZM1.33-3.928V-5.1H3.6v1.175ZM6.427-.8v-1.89H1.442v.553h4.3v.814H1.461V.628H6.713V.062H2.138V-.8Z" transform="translate(12 15)" fill="#fff"/>
</svg>
