<?xml version="1.0" standalone="no"?>
<!DOCTYPE svg PUBLIC "-//W3C//DTD SVG 20010904//EN"
 "http://www.w3.org/TR/2001/REC-SVG-20010904/DTD/svg10.dtd">
<svg version="1.0" xmlns="http://www.w3.org/2000/svg"
 width="147.000000pt" height="147.000000pt" viewBox="0 0 147.000000 147.000000"
 preserveAspectRatio="xMidYMid meet">
<metadata>
Created by potrace 1.14, written by Peter Selinger 2001-2017
</metadata>
<g transform="translate(0.000000,147.000000) scale(0.100000,-0.100000)"
fill="#000000" stroke="none">
<path d="M1200 1230 c0 -5 9 -10 20 -10 13 0 20 -7 20 -20 0 -11 7 -20 15 -20
10 0 15 10 15 30 0 28 -3 30 -35 30 -19 0 -35 -4 -35 -10z"/>
<path d="M1360 1230 c0 -5 5 -10 11 -10 8 0 8 -4 0 -14 -15 -18 -5 -24 34 -21
40 3 39 3 25 20 -9 10 -9 15 -1 15 6 0 11 5 11 10 0 6 -18 10 -40 10 -22 0
-40 -4 -40 -10z"/>
<path d="M1290 1166 c0 -31 3 -56 8 -56 25 1 57 50 33 50 -5 0 -11 12 -13 27
-2 14 -9 28 -15 31 -9 3 -13 -12 -13 -52z"/>
<path d="M1210 1180 c0 -11 -7 -20 -15 -20 -8 0 -15 -7 -15 -15 0 -11 12 -15
50 -15 38 0 50 4 50 15 0 9 -9 15 -25 15 -18 0 -25 5 -25 20 0 11 -4 20 -10
20 -5 0 -10 -9 -10 -20z"/>
<path d="M1350 1145 c0 -8 9 -15 20 -15 15 0 20 -7 20 -25 0 -14 5 -25 10 -25
6 0 10 11 10 25 0 18 5 25 20 25 11 0 20 7 20 15 0 11 -12 15 -50 15 -38 0
-50 -4 -50 -15z"/>
<path d="M1250 1089 c-10 -17 -9 -24 3 -37 23 -22 49 -8 45 25 -4 35 -33 42
-48 12z"/>
<path d="M116 1057 c-88 -50 -101 -166 -26 -224 8 -7 41 -26 72 -43 32 -17 63
-40 69 -51 28 -53 -30 -106 -104 -96 -45 6 -77 33 -94 80 -10 27 -12 28 -12 9
-2 -64 60 -112 143 -112 88 0 156 50 170 125 12 60 -17 103 -96 145 -107 57
-120 74 -97 123 20 45 85 60 138 32 30 -15 41 -33 41 -66 0 -10 5 -19 10 -19
13 0 13 21 0 54 -24 64 -138 87 -214 43z"/>
<path d="M370 1067 c0 -6 28 -109 63 -227 48 -161 68 -216 80 -218 13 -3 31
26 74 117 32 66 60 120 63 120 3 1 21 -52 40 -116 46 -156 55 -158 119 -21 27
57 76 160 109 231 34 70 57 127 52 127 -5 0 -44 -72 -86 -160 -43 -88 -80
-157 -84 -153 -4 4 -26 77 -50 161 l-43 152 -58 0 c-33 0 -59 -1 -59 -2 0 -2
11 -39 25 -83 14 -44 25 -89 25 -100 -1 -11 -16 -48 -33 -83 l-33 -63 -28 98
c-15 54 -36 128 -48 166 l-20 67 -54 0 c-37 0 -54 -4 -54 -13z"/>
<path d="M950 859 c-58 -121 -107 -225 -109 -230 -2 -6 19 -9 55 -7 l58 3 100
213 c55 116 103 209 107 205 3 -5 48 -98 99 -208 51 -110 96 -204 101 -209 24
-26 1 32 -93 234 l-103 220 -55 0 -55 0 -105 -221z"/>
<path d="M1137 814 c-4 -4 -7 -31 -7 -60 0 -50 2 -54 47 -92 25 -22 52 -38 60
-35 24 9 14 41 -21 68 -30 23 -35 34 -38 73 -2 33 -8 48 -18 50 -9 1 -19 0
-23 -4z"/>
<path d="M1257 542 c-10 -10 -17 -28 -17 -40 0 -25 33 -62 55 -62 21 0 55 36
55 58 0 52 -60 80 -93 44z m44 -45 c-13 -13 -26 -3 -16 12 3 6 11 8 17 5 6 -4
6 -10 -1 -17z"/>
<path d="M580 400 l0 -100 25 0 25 0 0 100 0 100 -25 0 -25 0 0 -100z"/>
<path d="M1070 400 c0 -93 1 -100 20 -100 16 0 20 7 20 35 0 44 18 46 22 3 2
-25 8 -34 26 -36 22 -3 22 -1 22 98 0 99 0 101 -22 98 -19 -2 -24 -10 -26 -40
-4 -51 -22 -49 -22 2 0 33 -3 40 -20 40 -19 0 -20 -7 -20 -100z"/>
<path d="M790 395 c0 -88 1 -95 20 -95 17 0 20 7 20 40 0 22 5 40 10 40 6 0
10 -18 10 -40 0 -36 3 -40 25 -40 25 0 25 0 25 95 0 95 0 95 -25 95 -22 0 -25
-4 -25 -35 0 -19 -4 -35 -10 -35 -5 0 -10 16 -10 35 0 28 -4 35 -20 35 -19 0
-20 -7 -20 -95z"/>
<path d="M970 440 c0 -13 -7 -20 -20 -20 -15 0 -20 -7 -20 -25 0 -17 6 -25 17
-25 15 0 15 -1 -1 -19 -9 -10 -14 -25 -10 -35 8 -20 13 -20 36 1 17 15 19 15
38 -2 16 -15 22 -16 35 -5 14 12 13 16 -6 37 -19 19 -20 23 -6 23 11 0 17 8
17 25 0 18 -5 25 -20 25 -13 0 -20 7 -20 20 0 13 -7 20 -20 20 -13 0 -20 -7
-20 -20z"/>
<path d="M430 360 l0 -60 55 0 55 0 0 60 0 60 -55 0 -55 0 0 -60z m70 -1 c0
-24 -23 -21 -28 4 -2 10 3 17 12 17 10 0 16 -9 16 -21z"/>
<path d="M660 400 c0 -16 7 -20 30 -20 20 0 30 -5 30 -15 0 -10 -10 -15 -30
-15 -29 0 -30 -1 -30 -50 l0 -50 50 0 c43 0 50 3 50 19 0 14 -8 21 -25 23 -14
2 -26 8 -26 13 0 6 12 11 26 13 23 3 25 7 25 53 l0 49 -50 0 c-43 0 -50 -3
-50 -20z"/>
<path d="M1210 395 c0 -21 5 -25 30 -25 20 0 30 -5 30 -15 0 -8 -7 -15 -15
-15 -12 0 -15 -13 -15 -55 l0 -55 55 0 55 0 0 55 c0 42 -3 55 -15 55 -27 0
-16 29 13 32 19 2 28 9 30 26 3 21 1 22 -82 22 -85 0 -86 0 -86 -25z m90 -110
c0 -8 -4 -15 -10 -15 -5 0 -10 7 -10 15 0 8 5 15 10 15 6 0 10 -7 10 -15z"/>
</g>
</svg>
